<svg xmlns="http://www.w3.org/2000/svg" style="display: none;">
  <defs>
    <symbol id="horizontal" viewBox="0 0 751 136">
      <path d="M39.0161 62.592H43.9121C48.2321 62.592 51.4961 61.44 53.7041 59.136 55.9121 56.832 57.0161 53.664 57.0161 49.632V16.368C57.0161 15.408 56.5361 14.928 55.5761 14.928H28.0721C27.1121 14.928 26.6321 15.408 26.6321 16.368V49.776C26.6321 58.32 30.7601 62.592 39.0161 62.592ZM5.8961 6.288H79.1921C80.7281 6.288 81.4961 7.008 81.4961 8.448V12.768C81.4961 14.208 80.7281 14.928 79.1921 14.928H68.3921C67.3361 14.928 66.8081 15.408 66.8081 16.368V93.84C66.8081 95.28 66.0881 96 64.6481 96H59.1761C57.7361 96 57.0161 95.28 57.0161 93.84V65.04H56.4401C54.0401 69.36 49.4801 71.52 42.7601 71.52H37.7201C31.3841 71.52 26.2961 69.648 22.4561 65.904 18.6161 62.16 16.6961 57.12 16.6961 50.784V16.368C16.6961 15.504 16.3121 15.024 15.5441 14.928H5.8961C4.3601 14.928 3.5921 14.16 3.5921 12.624V8.448C3.5921 7.008 4.3601 6.288 5.8961 6.288ZM98.334 96H92.718C91.278 96 90.558 95.28 90.558 93.84V16.368C90.558 15.408 90.078 14.928 89.118 14.928H78.318C76.878 14.928 76.158 14.208 76.158 12.768V8.448C76.158 7.008 76.878 6.288 78.318 6.288H112.734C114.27 6.288 115.038 7.008 115.038 8.448V12.768C115.038 14.208 114.27 14.928 112.734 14.928H101.934C100.974 14.928 100.494 15.408 100.494 16.368V93.84C100.494 95.28 99.774 96 98.334 96ZM180.4716 93.84V10.608C180.4716 9.36 180.8556 8.352 181.6236 7.584 182.3916 6.72 183.3996 6.288 184.6476 6.288H202.6476C204.0876 6.288 204.8076 7.008 204.8076 8.448V12.768C204.8076 14.208 204.0876 14.928 202.6476 14.928H191.7036C190.7436 14.928 190.2636 15.408 190.2636 16.368V93.84C190.2636 95.28 189.5436 96 188.1036 96H182.6316C181.1916 96 180.4716 95.28 180.4716 93.84ZM155.4156 94.128C155.4156 95.376 154.7436 96 153.3996 96H147.2076C146.0556 96 145.2396 95.472 144.7596 94.416L122.7276 62.88 119.4154 58.704V52.512C119.4154 50.88 120.2796 50.064 122.0076 50.064H140.5836C148.8396 50.064 152.9676 45.984 152.9676 37.824V25.008C152.9676 21.264 152.1996 18.624 150.6636 17.088 149.1276 15.456 146.4876 14.64 142.7436 14.64 139.0956 14.64 136.5036 15.456 134.9676 17.088 133.4316 18.624 132.6636 21.216 132.6636 24.864V32.352C132.6636 33.792 131.9916 34.512 130.6476 34.512H125.1756C123.7356 34.512 123.0156 33.792 123.0156 32.352V25.152C123.0156 12.48 129.5916 6.144 142.7436 6.144 155.9916 6.144 162.6156 12.48 162.6156 25.152V37.68C162.6156 51.696 155.4156 58.704 141.0156 58.704H130.7916L154.8396 92.544C155.2236 92.928 155.4156 93.456 155.4156 94.128ZM180.3336 99.888V95.856C180.3336 94.416 181.1016 93.696 182.6376 93.696H188.9736C195.5016 93.696 200.1096 95.136 202.7976 98.016 205.5816 100.992 206.9736 105.648 206.9736 111.984 206.9736 118.416 205.4856 123.312 202.5096 126.672 199.6296 130.032 194.8776 131.712 188.2536 131.712H180.7656C175.4856 131.712 170.6856 130.416 166.3656 127.824 164.8296 126.864 163.1016 125.184 161.1816 122.784 159.2616 120.096 156.3336 115.392 152.3976 108.672 151.7256 107.424 151.3896 106.464 151.3896 105.792 151.3896 105.216 151.7736 104.64 152.5416 104.064 155.7096 102.432 157.5816 101.616 158.1576 101.616 158.6376 101.616 159.2616 102.192 160.0296 103.344 160.7016 104.592 161.8056 106.656 163.3416 109.536 164.8776 112.512 165.9816 114.432 166.6536 115.296 167.3256 116.256 168.3816 117.504 169.8216 119.04 172.3176 121.728 176.0616 123.072 181.0536 123.072H188.2536C191.0376 123.072 193.1496 122.496 194.5896 121.344 196.0296 120.288 196.8936 119.088 197.1816 117.744 197.4696 116.4 197.6136 114.48 197.6136 111.984 197.6136 109.584 197.5176 107.76 197.3256 106.512 197.0376 105.36 196.2216 104.304 194.8776 103.344 193.5336 102.48 191.4696 102.048 188.6856 102.048H182.6376C181.1016 102.048 180.3336 101.328 180.3336 99.888ZM234.7656 62.592H239.6616C243.9816 62.592 247.2456 61.44 249.4536 59.136 251.6616 56.832 252.7656 53.664 252.7656 49.632V16.368C252.7656 15.408 252.2856 14.928 251.3256 14.928H223.8216C222.8616 14.928 222.3816 15.408 222.3816 16.368V49.776C222.3816 58.32 226.5096 62.592 234.7656 62.592ZM201.6456 6.288H274.9416C276.4776 6.288 277.2456 7.008 277.2456 8.448V12.768C277.2456 14.208 276.4776 14.928 274.9416 14.928H264.1416C263.0856 14.928 262.5576 15.408 262.5576 16.368V93.84C262.5576 95.28 261.8376 96 260.3976 96H254.9256C253.4856 96 252.7656 95.28 252.7656 93.84V65.04H252.1896C249.7896 69.36 245.2296 71.52 238.5096 71.52H233.4696C227.1336 71.52 222.0456 69.648 218.2056 65.904 214.3656 62.16 212.4456 57.12 212.4456 50.784V16.368C212.4456 15.504 212.0616 15.024 211.2936 14.928H201.6456C200.1096 14.928 199.3416 14.16 199.3416 12.624V8.448C199.3416 7.008 200.1096 6.288 201.6456 6.288ZM292.932 56.976V74.832C292.932 79.44 293.988 82.704 296.1 84.624 298.308 86.448 301.476 87.36 305.604 87.36H307.332C308.868 87.36 309.636 88.08 309.636 89.52V93.84C309.636 95.28 308.868 96 307.332 96H303.732C297.204 96 292.116 94.224 288.468 90.672 284.82 87.12 282.996 81.744 282.996 74.544V56.544C282.996 49.536 284.868 44.256 288.612 40.704 292.356 37.152 297.492 35.376 304.02 35.376H323.316C324.372 35.376 324.9 34.848 324.9 33.792V16.368C324.9 15.408 324.42 14.928 323.46 14.928H274.068C272.532 14.928 271.764 14.208 271.764 12.768V8.448C271.764 7.008 272.532 6.288 274.068 6.288H347.076C348.516 6.288 349.236 7.008 349.236 8.448V12.768C349.236 14.208 348.516 14.928 347.076 14.928H336.132C335.172 14.928 334.692 15.408 334.692 16.368V93.84C334.692 95.28 333.972 96 332.532 96H327.06C325.62 96 324.9 95.28 324.9 93.84V45.888C324.9 44.832 324.372 44.304 323.316 44.304H305.028C296.964 44.304 292.932 48.528 292.932 56.976ZM366.084 96H360.468C359.028 96 358.308 95.28 358.308 93.84V16.368C358.308 15.408 357.828 14.928 356.868 14.928H346.068C344.628 14.928 343.908 14.208 343.908 12.768V8.448C343.908 7.008 344.628 6.288 346.068 6.288H380.484C382.02 6.288 382.788 7.008 382.788 8.448V12.768C382.788 14.208 382.02 14.928 380.484 14.928H369.684C368.724 14.928 368.244 15.408 368.244 16.368V93.84C368.244 95.28 367.524 96 366.084 96ZM379.6776 6.288H498.0456C499.4856 6.288 500.2056 7.008 500.2056 8.448V12.768C500.2056 14.208 499.4856 14.928 498.0456 14.928H487.2456C486.1896 14.928 485.6616 15.408 485.6616 16.368V93.84C485.6616 95.28 484.9416 96 483.5016 96H478.0296C476.5896 96 475.8696 95.28 475.8696 93.84V72.528L447.9336 94.416C446.6856 95.472 445.3896 96 444.0456 96H436.8456C435.6936 96 435.1176 95.424 435.1176 94.272 435.1176 93.408 435.8376 92.4 437.2776 91.248L463.7736 70.512 475.5816 61.872V54.672C475.5816 46.608 471.2136 42.576 462.4776 42.576H456.7176C448.1736 42.576 443.9016 46.56 443.9016 54.528V55.392C443.9016 56.832 443.1816 57.552 441.7416 57.552H396.3816L417.2616 92.112C417.7416 92.784 417.9816 93.456 417.9816 94.128 417.9816 95.376 417.3096 96 415.9656 96H409.9176C408.8616 96 408.0456 95.472 407.4696 94.416L389.0376 63.312 384.8616 57.408V51.216C384.8616 49.584 385.7256 48.768 387.4536 48.768H396.6696C399.5496 48.768 401.8536 47.904 403.5816 46.176 405.3096 44.448 406.1736 41.76 406.1736 38.112V16.368C406.1736 15.408 405.6936 14.928 404.7336 14.928H379.6776C378.1416 14.928 377.3736 14.16 377.3736 12.624V8.448C377.3736 7.008 378.1416 6.288 379.6776 6.288ZM475.8696 39.696V16.368C475.8696 15.408 475.3896 14.928 474.4296 14.928H417.5496C416.5896 14.928 416.1096 15.408 416.1096 16.368V36.096C416.1096 42.048 414.6216 46.08 411.6456 48.192V48.768H434.6856C436.7016 38.592 443.7576 33.504 455.8536 33.504H460.7496C467.7576 33.504 472.6056 35.568 475.2936 39.696H475.8696Z" />
    </symbol>
    <symbol id="vertical" viewBox="0 0 136 766">
      <path d="M102.9787 579.696h-.576c-2.688-4.128-7.536-6.192-14.544-6.192h-4.896c-12.096 0-19.152 5.088-21.168 15.264h-23.04v-.576c2.976-2.112 4.464-6.144 4.464-12.096V556.368c0-.96.48-1.44 1.44-1.44h56.88c.96 0 1.44.48 1.44 1.44v23.328ZM6.7867 546.288c-1.536 0-2.304.72-2.304 2.16v4.176c0 1.536.768 2.304 2.304 2.304h25.056c.96 0 1.44.48 1.44 1.44v21.744c0 3.648-.864 6.336-2.592 8.064s-4.032 2.592-6.912 2.592h-9.216c-1.728 0-2.592.816-2.592 2.448v6.192l4.176 5.904 18.432 31.104c.576 1.056 1.392 1.584 2.448 1.584h6.048c1.344 0 2.016-.624 2.016-1.872 0-.672-.24-1.344-.72-2.016l-20.88-34.56h45.36c1.44 0 2.16-.72 2.16-2.16v-.864c0-7.968 4.272-11.952 12.816-11.952h5.76c8.736 0 13.104 4.032 13.104 12.096v7.2l-11.808 8.64-26.496 20.736c-1.44 1.152-2.16 2.16-2.16 3.024 0 1.152.576 1.728 1.728 1.728h7.2c1.344 0 2.64-.528 3.888-1.584l27.936-21.888V633.84c0 1.44.72 2.16 2.16 2.16h5.472c1.44 0 2.16-.72 2.16-2.16V556.368c0-.96.528-1.44 1.584-1.44h10.8005c1.44 0 2.16-.72 2.16-2.16v-4.32c0-1.44-.72-2.16-2.16-2.16H6.7867Zm84.947-180c-1.248 0-2.256.432-3.024 1.296-.768.768-1.152 1.776-1.152 3.024v41.616c0 1.056-.48 1.584-1.44 1.584h-18.72c-1.536-2.976-3.936-5.04-7.2-6.192v-.576c6.144-2.592 9.216-7.968 9.216-16.128v-3.168c0-6.912-1.872-12.192-5.616-15.84-3.648-3.744-8.928-5.616-15.84-5.616h-12.96c-1.536 0-2.304.72-2.304 2.16v4.32c0 1.44.768 2.16 2.304 2.16h11.952c8.544 0 12.816 4.224 12.816 12.672v2.88c0 8.352-4.272 12.528-12.816 12.528h-8.352c-1.44 0-2.16.72-2.16 2.16v4.464c0 1.44.768 2.16 2.304 2.16h8.208c8.544 0 12.816 4.128 12.816 12.384v4.752c0 8.544-4.272 12.816-12.816 12.816H30.2458c-1.536 0-2.304.672-2.304 2.016v4.608c0 1.44.768 2.16 2.304 2.16h17.28c6.816 0 12.144-1.872 15.984-5.616 3.936-3.84 5.904-9.168 5.904-15.984v-6.48h16.704c.96 0 1.44.48 1.44 1.44V453.84c0 1.44.768 2.16 2.304 2.16h5.472c1.44 0 2.1601-.72 2.1601-2.16V376.368c0-.96.4799-1.44 1.4399-1.44h10.8c1.536 0 2.304-.72 2.304-2.16v-4.32c0-1.44-.768-2.16-2.304-2.16h-18ZM97.9579 250.8c0 .96-.528 1.44-1.584 1.44H71.4619c-.864 0-1.296-.528-1.296-1.584v-8.064c0-3.936-2.16-5.904-6.48-5.904h-21.6c-3.648 0-6.288-.768-7.92-2.304-1.536-1.536-2.304-4.032-2.304-7.488 0-3.552.816-6.048 2.448-7.488 1.632-1.536 4.272-2.304 7.92-2.304h22.608c3.264 0 4.896-1.68 4.896-5.04V196.368c0-.96.528-1.44 1.584-1.44h25.2c.96 0 1.44.48 1.44 1.44V250.8Zm-85.968-64.512c-1.536 0-2.304.72-2.304 2.16v4.32c0 1.44.768 2.16 2.304 2.16h46.512c1.056 0 1.584.48 1.584 1.44v10.656c0 .96-.528 1.44-1.584 1.44H40.7899c-12.576 0-18.864 5.808-18.864 17.424 0 7.584 2.784 12.432 8.352 14.544v.576c-6.144 2.688-9.216 8.064-9.216 16.128v14.4c0 6.432 1.92 11.472 5.76 15.12 3.936 3.648 9.552 5.472 16.848 5.472h23.904c1.44 0 2.16-.672 2.16-2.016v-4.32c0-1.344-.72-2.016-2.16-2.016h-23.04c-9.024 0-13.536-4.08-13.536-12.24V257.28c0-8.352 3.84-12.528 11.52-12.528h16.704c.864 0 1.296.528 1.296 1.584v26.496c0 1.536.72 2.304 2.16 2.304h5.328c1.44 0 2.16-.768 2.16-2.304v-10.368c0-1.056.48-1.584 1.44-1.584h24.768c1.056 0 1.584.528 1.584 1.584v24.768c0 1.44.72 2.16 2.16 2.16h5.472c1.44 0 2.16-.72 2.16-2.16V196.368c0-.96.48-1.44 1.44-1.44h10.9445c1.44 0 2.16-.72 2.16-2.16v-4.32c0-1.44-.72-2.16-2.16-2.16H11.9899ZM63.552 83.328v.576c-1.632.96-3.216 2.112-4.752 3.456L46.56 98.304c-.384.384-.576.864-.576 1.44 0 1.056.576 1.584 1.728 1.584H54.48c1.248 0 2.448-.576 3.6-1.728l12.24-11.664c2.496-2.112 5.664-5.328 9.504-9.648H80.4V93.696c0 1.536.672 2.304 2.016 2.304h5.616c1.44 0 2.16-.768 2.16-2.304V16.368c0-.96.48-1.44 1.44-1.44h10.944c1.44 0 2.16-.72 2.16-2.16V8.448c0-1.44-.72-2.16-2.16-2.16H29.568c-1.536 0-2.304.72-2.304 2.16v4.32c0 1.44.768 2.16 2.304 2.16H78.816c1.056 0 1.584.48 1.584 1.44v46.08c0 .672-.096 1.68-.288 3.024l-27.36-27.36c1.92-1.632 4.56-2.448 7.92-2.448h7.776c1.536 0 2.304-.72 2.304-2.16v-4.32c0-1.44-.768-2.16-2.304-2.16h-8.64c-6.72 0-12 1.92-15.84 5.76-3.84 3.744-5.76 8.976-5.76 15.696V62.592c0 6.432 1.872 11.52 5.616 15.264 3.744 3.648 8.592 5.472 14.544 5.472h5.184ZM47.568 48.768c0-2.4.336-4.32 1.008-5.76l28.368 28.08c-1.824 2.976-5.136 4.464-9.936 4.464h-6.48c-8.64 0-12.96-4.368-12.96-13.104V48.768Z" />
    </symbol>
  </defs>
</svg>
